<svg xmlns="http://www.w3.org/2000/svg" xmlns:xlink="http://www.w3.org/1999/xlink" viewBox="0,0,256,256" width="144px" height="144px" fill-rule="nonzero"><defs><radialGradient cx="20.024" cy="20.096" r="19.604" gradientUnits="userSpaceOnUse" id="color-1"><stop offset="0.693" stop-color="#006185"></stop><stop offset="0.921" stop-color="#35c1f1"></stop></radialGradient><linearGradient x1="8.911" y1="8.911" x2="31.339" y2="31.339" gradientUnits="userSpaceOnUse" id="color-2"><stop offset="0" stop-color="#a3ffff"></stop><stop offset="0.223" stop-color="#9dfbff"></stop><stop offset="0.53" stop-color="#8bf1ff"></stop><stop offset="0.885" stop-color="#6ee0ff"></stop><stop offset="1" stop-color="#63daff"></stop></linearGradient></defs><g fill="none" fill-rule="nonzero" stroke="none" stroke-width="1" stroke-linecap="butt" stroke-linejoin="miter" stroke-miterlimit="10" stroke-dasharray="" stroke-dashoffset="0" font-family="none" font-weight="none" font-size="none" text-anchor="none" style="mix-blend-mode: normal"><g transform="scale(5.33333,5.33333)"><path d="M35.983,32.448l-3.536,3.536l7.87,7.87c0.195,0.195 0.512,0.195 0.707,0l2.828,-2.828c0.195,-0.195 0.195,-0.512 0,-0.707z" fill="#199be2"></path><path d="M31.601,28.065l-3.536,3.536l4.383,4.382l3.535,-3.535z" fill="url(#color-1)"></path><circle cx="20" cy="20" r="16" fill="url(#color-2)"></circle></g></g><g fill="none" fill-rule="nonzero" stroke="none" stroke-width="1" stroke-linecap="butt" stroke-linejoin="miter" stroke-miterlimit="10" stroke-dasharray="" stroke-dashoffset="0" font-family="none" font-weight="none" font-size="none" text-anchor="none" style="mix-blend-mode: normal"><g transform="translate(34.66667,34.66667) scale(7.2,7.2)" id="overlay"><g><circle cx="10" cy="10" r="10" fill="#6c19ff"></circle><path d="M13.023,13.724h-6.046c-1.974,0 -3.675,1.328 -4.188,3.193c1.82,1.897 4.375,3.083 7.211,3.083c2.836,0 5.39,-1.186 7.21,-3.083c-0.512,-1.866 -2.213,-3.193 -4.187,-3.193z" fill="#3dd9eb"></path><path d="M15,10.25c0,-0.49 -0.231,-0.904 -0.56,-1.109l0.01,-0.085c0.321,-2.668 -1.762,-5.016 -4.45,-5.016c-2.688,0 -4.771,2.348 -4.451,5.016l0.01,0.085c-0.328,0.205 -0.559,0.619 -0.559,1.109c0,0.647 0.399,1.162 0.904,1.226c0.518,1.802 2.168,3.09 4.096,3.09c1.928,0 3.578,-1.289 4.096,-3.09c0.505,-0.064 0.904,-0.579 0.904,-1.226z" fill="#7debf5"></path></g></g></g></svg>